<svg 
 xmlns="http://www.w3.org/2000/svg"
 xmlns:xlink="http://www.w3.org/1999/xlink"
 width="1135px" height="395px">
<path fill-rule="evenodd"  fill="rgb(180, 85, 43)"
 d="M1120.842,237.166 C1111.467,255.014 1098.375,268.973 1081.571,279.041 C1064.765,289.109 1045.113,294.145 1022.613,294.145 C1000.113,294.145 980.458,289.074 963.654,278.937 C946.848,268.800 933.827,254.806 924.592,236.958 C915.354,219.113 910.738,198.592 910.738,175.395 C910.738,151.785 915.458,131.092 924.905,113.312 C934.348,95.535 947.473,81.645 964.279,71.645 C981.083,61.645 1000.529,56.645 1022.613,56.645 C1045.250,56.645 1064.973,61.717 1081.779,71.854 C1098.583,81.994 1111.640,95.988 1120.946,113.833 C1130.250,131.681 1134.904,152.202 1134.904,175.395 C1134.904,198.729 1130.217,219.321 1120.842,237.166 ZM1066.988,123.208 C1057.125,110.223 1042.333,103.729 1022.613,103.729 C1009.140,103.729 998.062,106.749 989.384,112.791 C980.702,118.833 974.279,127.238 970.113,137.999 C965.946,148.764 963.863,161.229 963.863,175.395 C963.863,197.202 968.827,214.598 978.759,227.583 C988.687,240.571 1003.306,247.062 1022.613,247.062 C1042.613,247.062 1057.473,240.395 1067.196,227.062 C1076.916,213.729 1081.779,196.509 1081.779,175.395 C1081.779,153.592 1076.848,136.196 1066.988,123.208 ZM870.113,330.395 C866.779,344.979 860.389,356.958 850.946,366.333 C841.500,375.708 829.800,382.687 815.842,387.270 C801.884,391.854 786.431,394.145 769.488,394.145 C756.988,394.145 745.009,392.199 733.550,388.312 C722.092,384.422 711.779,378.833 702.613,371.541 C693.446,364.249 685.946,355.464 680.113,345.187 L726.363,322.270 C730.666,330.464 736.744,336.541 744.592,340.499 C752.437,344.458 760.806,346.437 769.696,346.437 C780.113,346.437 789.416,344.594 797.613,340.916 C805.806,337.234 812.160,331.818 816.675,324.666 C821.187,317.511 823.306,308.589 823.029,297.895 L823.029,276.548 C822.141,277.220 821.238,277.877 820.321,278.520 C805.458,288.937 787.056,294.145 765.113,294.145 C744.416,294.145 726.363,288.937 710.946,278.520 C695.529,268.104 683.583,253.937 675.113,236.020 C666.639,218.104 662.404,197.895 662.404,175.395 C662.404,152.619 666.675,132.306 675.217,114.458 C683.759,96.613 695.875,82.514 711.571,72.166 C727.264,61.821 745.738,56.645 766.988,56.645 C788.375,56.645 806.327,61.821 820.842,72.166 C823.803,74.278 826.610,76.555 829.279,78.982 L829.279,62.895 L873.238,62.895 L873.238,298.729 C873.238,304.422 872.994,309.874 872.509,315.083 C872.020,320.291 871.223,325.395 870.113,330.395 ZM823.550,136.749 C819.729,125.708 813.791,117.098 805.738,110.916 C797.681,104.738 787.264,101.645 774.488,101.645 C761.014,101.645 749.904,104.946 741.154,111.541 C732.404,118.139 725.946,127.029 721.779,138.208 C717.613,149.389 715.529,161.785 715.529,175.395 C715.529,189.145 717.577,201.613 721.675,212.791 C725.770,223.973 732.056,232.827 740.529,239.354 C748.1000,245.884 759.764,249.145 772.821,249.145 C786.291,249.145 797.160,246.056 805.425,239.874 C813.687,233.696 819.729,225.050 823.550,213.937 C827.369,202.827 829.279,189.979 829.279,175.395 C829.279,160.675 827.369,147.791 823.550,136.749 ZM578.238,179.562 C578.238,172.479 577.750,164.634 576.779,156.020 C575.806,147.410 573.550,139.113 570.009,131.124 C566.467,123.139 561.187,116.577 554.175,111.437 C547.160,106.300 537.681,103.729 525.738,103.729 C519.348,103.729 513.029,104.770 506.779,106.854 C500.529,108.937 494.869,112.514 489.800,117.583 C484.729,122.654 480.666,129.598 477.613,138.416 C474.556,147.238 473.029,158.520 473.029,172.270 L473.029,287.895 L422.196,287.895 L422.196,62.895 L466.988,62.895 L466.988,87.892 C472.718,81.119 479.447,75.246 487.196,70.291 C501.640,61.056 519.416,56.437 540.529,56.437 C557.196,56.437 570.946,59.217 581.779,64.770 C592.613,70.327 601.223,77.410 607.613,86.020 C613.1000,94.634 618.723,103.800 621.779,113.520 C624.833,123.244 626.812,132.446 627.717,141.124 C628.619,149.806 629.071,156.854 629.071,162.270 L629.071,287.895 L578.238,287.895 L578.238,179.562 ZM365.946,189.354 L340.738,189.354 L227.695,189.354 C229.382,205.503 234.137,218.498 241.988,228.312 C251.988,240.812 266.571,247.062 285.738,247.062 C298.098,247.062 308.759,244.321 317.717,238.833 C326.675,233.348 333.583,225.395 338.446,214.979 L388.029,229.979 C379.416,250.259 366.119,266.020 348.134,277.270 C330.145,288.520 310.321,294.145 288.654,294.145 C265.875,294.145 245.875,289.214 228.654,279.354 C211.431,269.494 197.994,255.812 188.342,238.312 C178.687,220.812 173.863,200.675 173.863,177.895 C173.863,153.312 178.583,131.958 188.030,113.833 C197.473,95.708 210.598,81.645 227.404,71.645 C244.208,61.645 263.654,56.645 285.738,56.645 C309.071,56.645 328.895,62.098 345.217,72.999 C361.535,83.904 373.654,99.285 381.571,119.145 C389.488,139.009 392.473,162.410 390.529,189.354 L365.946,189.354 ZM327.821,117.479 C319.348,106.229 306.015,100.604 287.821,100.604 C267.265,100.604 251.988,106.958 241.988,119.666 C235.564,127.830 231.215,138.430 228.918,151.437 L339.554,151.437 C337.739,136.798 333.835,125.466 327.821,117.479 ZM113.967,291.541 C99.729,291.193 86.988,288.553 75.738,283.624 C64.488,278.696 55.946,270.884 50.113,260.187 C44.973,250.467 42.265,240.535 41.988,230.395 C41.708,220.259 41.571,208.800 41.571,196.020 L41.571,102.270 L0.738,102.270 L0.738,62.895 L41.571,62.895 L41.571,0.395 L91.571,0.395 L91.571,62.895 L157.613,62.895 L157.613,102.270 L91.571,102.270 L91.571,193.104 C91.571,202.134 91.675,210.050 91.884,216.854 C92.092,223.660 93.515,229.217 96.154,233.520 C101.154,241.854 109.140,246.509 120.113,247.479 C131.083,248.452 143.583,247.895 157.613,245.812 L157.613,287.895 C142.750,290.672 128.202,291.886 113.967,291.541 Z"/>
</svg>